# xmcd CD database file generated by Grip 3.1.7
# 
# Track frame offsets:
#       150
#       15342
#       37846
#       53389
#       66785
#       87283
#       99107
#       110516
#       125571
#       141901
#       158206
#       173947
#       192317
#       205897
# 
# Disc length: 2977 seconds
# 
# Revision: 1
# Processed by: cddbd v1.5PL3 Copyright (c) Steve Scherf et al.
# Submitted via: Grip 3.1.7
# 
DISCID=b00b9f0e
DTITLE=Eric Clapto - Me and Mr. Johns
DYEAR=2004
DGENRE=Blues
TTITLE0=When You Got A Good Frie
TTITLE1=Little Queen Of Spad
TTITLE2=They're Red H
TTITLE3=Me And The Devil Blu
TTITLE4=Traveling Riverside Blu
TTITLE5=Last Fair Deal Gone Do
TTITLE6=Stop Breakin' Down Blu
TTITLE7=Milkcow's Calf Blu
TTITLE8=Kind Hearted Wom
TTITLE9=Come On In My Kitch
TTITLE10=If I Had Possession Over Judgement D
TTITLE11=Love In Va
TTITLE12=32 20 Blu
TTITLE13=Hell Hound On My Tra
EXTD=
EXTT0=
EXTT1=
EXTT2=
EXTT3=
EXTT4=
EXTT5=
EXTT6=
EXTT7=
EXTT8=
EXTT9=
EXTT10=
EXTT11=
EXTT12=
EXTT13=
PLAYORDER=
